<svg width="38" height="38" viewBox="0 0 38 38" fill="none" xmlns="http://www.w3.org/2000/svg">
<g clip-path="url(#clip0_10_41)">
<g filter="url(#filter0_d_10_41)">
<path d="M19.0001 3.16663C16.9208 3.16663 14.8619 3.57617 12.9409 4.37187C11.0199 5.16757 9.27448 6.33384 7.80422 7.8041C4.8349 10.7734 3.16675 14.8007 3.16675 19C3.16675 25.9983 7.71091 31.9358 13.9967 34.0416C14.7884 34.1683 15.0417 33.6775 15.0417 33.25C15.0417 32.8858 15.0417 31.8883 15.0417 30.5741C10.6559 31.5241 9.72175 28.4525 9.72175 28.4525C8.99341 26.6158 7.96425 26.125 7.96425 26.125C6.52341 25.1433 8.07508 25.175 8.07508 25.175C9.65841 25.2858 10.4976 26.8058 10.4976 26.8058C11.8751 29.2125 14.2026 28.5 15.1051 28.12C15.2476 27.0908 15.6592 26.3941 16.1026 25.9983C12.5876 25.6025 8.89841 24.2408 8.89841 18.2083C8.89841 16.4508 9.50008 15.0416 10.5292 13.9175C10.3709 13.5216 9.81675 11.875 10.6876 9.73746C10.6876 9.73746 12.0176 9.30996 15.0417 11.3525C16.2926 11.0041 17.6542 10.83 19.0001 10.83C20.3459 10.83 21.7076 11.0041 22.9584 11.3525C25.9826 9.30996 27.3126 9.73746 27.3126 9.73746C28.1834 11.875 27.6292 13.5216 27.4709 13.9175C28.5001 15.0416 29.1017 16.4508 29.1017 18.2083C29.1017 24.2566 25.3967 25.5866 21.8659 25.9825C22.4359 26.4733 22.9584 27.4391 22.9584 28.9116C22.9584 31.0333 22.9584 32.7433 22.9584 33.25C22.9584 33.6775 23.2117 34.1841 24.0192 34.0416C30.3051 31.92 34.8334 25.9983 34.8334 19C34.8334 16.9207 34.4239 14.8618 33.6282 12.9408C32.8325 11.0198 31.6662 9.27436 30.1959 7.8041C28.7257 6.33384 26.9802 5.16757 25.0592 4.37187C23.1382 3.57617 21.0793 3.16663 19.0001 3.16663V3.16663Z" fill="#CDD9E5"/>
</g>
</g>
<defs>
<filter id="filter0_d_10_41" x="-0.833252" y="3.16663" width="39.6667" height="38.8995" filterUnits="userSpaceOnUse" color-interpolation-filters="sRGB">
<feFlood flood-opacity="0" result="BackgroundImageFix"/>
<feColorMatrix in="SourceAlpha" type="matrix" values="0 0 0 0 0 0 0 0 0 0 0 0 0 0 0 0 0 0 127 0" result="hardAlpha"/>
<feOffset dy="4"/>
<feGaussianBlur stdDeviation="2"/>
<feComposite in2="hardAlpha" operator="out"/>
<feColorMatrix type="matrix" values="0 0 0 0 0 0 0 0 0 0 0 0 0 0 0 0 0 0 0.25 0"/>
<feBlend mode="normal" in2="BackgroundImageFix" result="effect1_dropShadow_10_41"/>
<feBlend mode="normal" in="SourceGraphic" in2="effect1_dropShadow_10_41" result="shape"/>
</filter>
<clipPath id="clip0_10_41">
<rect width="38" height="38" fill="white"/>
</clipPath>
</defs>
</svg>
